<?xml version="1.0" standalone="no"?>
<!DOCTYPE svg PUBLIC "-//W3C//DTD SVG 20010904//EN"
 "http://www.w3.org/TR/2001/REC-SVG-20010904/DTD/svg10.dtd">
<svg version="1.0" xmlns="http://www.w3.org/2000/svg"
 width="1672.000000pt" height="892.000000pt" viewBox="0 0 1672.000000 892.000000"
 preserveAspectRatio="xMidYMid meet">

<g transform="translate(0.000000,892.000000) scale(0.100000,-0.100000)"
fill="#000000" stroke="none">
<path d="M1710 8211 c0 -5 175 -584 389 -1287 422 -1389 1131 -3728 1317
-4344 64 -212 119 -391 123 -397 4 -7 62 171 130 395 165 545 827 2723 1315
4327 218 716 396 1304 396 1308 0 4 -826 7 -1835 7 -1040 0 -1835 -4 -1835 -9z"/>
<path d="M6188 5868 c-30 -101 -243 -797 -472 -1548 -1023 -3354 -1206 -3955
-1206 -3962 0 -5 392 -8 870 -8 l870 0 0 2850 c0 1568 -1 2850 -3 2850 -2 0
-28 -82 -59 -182z"/>
<path d="M841 3198 l-1 -2848 869 0 870 0 -14 43 c-8 23 -188 614 -401 1312
-356 1174 -1060 3484 -1238 4070 -42 138 -78 255 -81 260 -2 6 -4 -1271 -4
-2837z"/>
</g>
</svg>
